<mxfile host="b6c1e1da-e612-4db8-9ef0-1c80aa745ab2" modified="2020-09-17T13:57:15.717Z" agent="5.0 (Windows NT 10.0; Win64; x64) AppleWebKit/537.36 (KHTML, like Gecko) Code/1.49.0 Chrome/83.0.4103.122 Electron/9.2.1 Safari/537.36" etag="e2uxyppyCTI54a2bY354" version="13.1.3">
    <diagram id="PGa_qlCYg8pmCsjZJtMJ" name="第 1 页">
        <mxGraphModel dx="765" dy="618" grid="1" gridSize="10" guides="1" tooltips="1" connect="1" arrows="1" fold="1" page="1" pageScale="1" pageWidth="827" pageHeight="1169" math="0" shadow="0">
            <root>
                <mxCell id="0"/>
                <mxCell id="1" parent="0"/>
                <mxCell id="mURyflM2bXiE29OncrUb-1" value="" style="endArrow=classic;html=1;strokeWidth=2;" parent="1" edge="1">
                    <mxGeometry width="50" height="50" relative="1" as="geometry">
                        <mxPoint x="120" y="80" as="sourcePoint"/>
                        <mxPoint x="120" y="320" as="targetPoint"/>
                    </mxGeometry>
                </mxCell>
                <mxCell id="mURyflM2bXiE29OncrUb-2" value="" style="endArrow=classic;html=1;strokeWidth=3;" parent="1" edge="1">
                    <mxGeometry width="50" height="50" relative="1" as="geometry">
                        <mxPoint x="80" y="120" as="sourcePoint"/>
                        <mxPoint x="320" y="120" as="targetPoint"/>
                    </mxGeometry>
                </mxCell>
                <mxCell id="mURyflM2bXiE29OncrUb-3" value="&lt;font style=&quot;font-size: 14px&quot;&gt;x&lt;/font&gt;" style="text;html=1;align=center;verticalAlign=middle;resizable=0;points=[];autosize=1;" parent="1" vertex="1">
                    <mxGeometry x="300" y="130" width="20" height="20" as="geometry"/>
                </mxCell>
                <mxCell id="mURyflM2bXiE29OncrUb-4" value="&lt;font style=&quot;font-size: 14px&quot;&gt;y&lt;/font&gt;" style="text;html=1;align=center;verticalAlign=middle;resizable=0;points=[];autosize=1;" parent="1" vertex="1">
                    <mxGeometry x="90" y="300" width="20" height="20" as="geometry"/>
                </mxCell>
                <mxCell id="mURyflM2bXiE29OncrUb-5" value="" style="rounded=0;whiteSpace=wrap;html=1;strokeWidth=2;fillColor=#FF0000;" parent="1" vertex="1">
                    <mxGeometry x="160" y="160" width="80" height="40" as="geometry"/>
                </mxCell>
                <mxCell id="mURyflM2bXiE29OncrUb-6" value="" style="endArrow=classic;html=1;strokeWidth=2;dashed=1;" parent="1" edge="1">
                    <mxGeometry width="50" height="50" relative="1" as="geometry">
                        <mxPoint x="160" y="80" as="sourcePoint"/>
                        <mxPoint x="160" y="360" as="targetPoint"/>
                    </mxGeometry>
                </mxCell>
                <mxCell id="mURyflM2bXiE29OncrUb-7" value="" style="endArrow=classic;html=1;dashed=1;strokeWidth=2;" parent="1" edge="1">
                    <mxGeometry width="50" height="50" relative="1" as="geometry">
                        <mxPoint x="80" y="160" as="sourcePoint"/>
                        <mxPoint x="360" y="160" as="targetPoint"/>
                    </mxGeometry>
                </mxCell>
                <mxCell id="mURyflM2bXiE29OncrUb-8" value="&lt;font style=&quot;font-size: 14px&quot;&gt;x1&lt;/font&gt;" style="text;html=1;align=center;verticalAlign=middle;resizable=0;points=[];autosize=1;" parent="1" vertex="1">
                    <mxGeometry x="330" y="170" width="30" height="20" as="geometry"/>
                </mxCell>
                <mxCell id="mURyflM2bXiE29OncrUb-9" value="&lt;font style=&quot;font-size: 14px&quot;&gt;y1&lt;/font&gt;" style="text;html=1;align=center;verticalAlign=middle;resizable=0;points=[];autosize=1;" parent="1" vertex="1">
                    <mxGeometry x="130" y="320" width="30" height="20" as="geometry"/>
                </mxCell>
                <mxCell id="mURyflM2bXiE29OncrUb-10" value="" style="rounded=0;whiteSpace=wrap;html=1;dashed=1;strokeWidth=2;strokeColor=#E1D5E7;fillColor=#E1D5E7;" parent="1" vertex="1">
                    <mxGeometry x="200" y="200" width="80" height="40" as="geometry"/>
                </mxCell>
                <mxCell id="mURyflM2bXiE29OncrUb-15" value="&lt;font style=&quot;font-size: 14px&quot;&gt;0&lt;/font&gt;" style="text;html=1;align=center;verticalAlign=middle;resizable=0;points=[];autosize=1;" parent="1" vertex="1">
                    <mxGeometry x="100" y="120" width="20" height="20" as="geometry"/>
                </mxCell>
                <mxCell id="mURyflM2bXiE29OncrUb-16" value="&lt;font style=&quot;font-size: 14px&quot;&gt;虚线为新坐标系&lt;br&gt;每一个大网格代表单位为50&lt;br&gt;&lt;/font&gt;" style="text;html=1;align=center;verticalAlign=middle;resizable=0;points=[];autosize=1;" parent="1" vertex="1">
                    <mxGeometry x="100" y="380" width="190" height="40" as="geometry"/>
                </mxCell>
                <mxCell id="YX-Z8ot5_CYYgM4PyoWb-2" value="&lt;font style=&quot;font-size: 14px&quot;&gt;50&lt;/font&gt;" style="text;html=1;align=center;verticalAlign=middle;resizable=0;points=[];autosize=1;" parent="1" vertex="1">
                    <mxGeometry x="130" y="120" width="30" height="20" as="geometry"/>
                </mxCell>
                <mxCell id="YX-Z8ot5_CYYgM4PyoWb-3" value="&lt;font style=&quot;font-size: 14px&quot;&gt;50&lt;/font&gt;" style="text;html=1;align=center;verticalAlign=middle;resizable=0;points=[];autosize=1;" parent="1" vertex="1">
                    <mxGeometry x="85" y="160" width="30" height="20" as="geometry"/>
                </mxCell>
                <mxCell id="2" value="" style="rounded=0;whiteSpace=wrap;html=1;strokeWidth=2;fillColor=#FF0000;" parent="1" vertex="1">
                    <mxGeometry x="160" y="160" width="80" height="40" as="geometry"/>
                </mxCell>
                <mxCell id="5" value="" style="rounded=0;whiteSpace=wrap;html=1;dashed=1;strokeWidth=2;strokeColor=#E1D5E7;fillColor=#0000FF;" parent="1" vertex="1">
                    <mxGeometry x="200" y="200" width="80" height="40" as="geometry"/>
                </mxCell>
                <mxCell id="4" value="" style="endArrow=classic;html=1;dashed=1;strokeWidth=2;fillColor=#dae8fc;strokeColor=#6c8ebf;dashPattern=1 2;" parent="1" edge="1">
                    <mxGeometry width="50" height="50" relative="1" as="geometry">
                        <mxPoint x="110" y="110" as="sourcePoint"/>
                        <mxPoint x="320" y="320" as="targetPoint"/>
                    </mxGeometry>
                </mxCell>
                <mxCell id="Sokfa1gHsgJLt7srZXwu-5" value="&lt;font style=&quot;font-size: 14px&quot;&gt;x2&lt;/font&gt;" style="text;html=1;align=center;verticalAlign=middle;resizable=0;points=[];autosize=1;" parent="1" vertex="1">
                    <mxGeometry x="295" y="320" width="30" height="20" as="geometry"/>
                </mxCell>
                <mxCell id="Sokfa1gHsgJLt7srZXwu-6" value="&lt;font style=&quot;font-size: 14px&quot;&gt;y2&lt;/font&gt;" style="text;html=1;align=center;verticalAlign=middle;resizable=0;points=[];autosize=1;" parent="1" vertex="1">
                    <mxGeometry x="20" y="240" width="30" height="20" as="geometry"/>
                </mxCell>
                <mxCell id="Sokfa1gHsgJLt7srZXwu-7" value="" style="rounded=0;whiteSpace=wrap;html=1;dashed=1;strokeWidth=2;strokeColor=#E1D5E7;rotation=45;fillColor=#00FF00;" parent="1" vertex="1">
                    <mxGeometry x="135" y="241" width="80" height="40" as="geometry"/>
                </mxCell>
                <mxCell id="Sokfa1gHsgJLt7srZXwu-9" value="" style="endArrow=classic;html=1;strokeWidth=2;dashed=1;fillColor=#dae8fc;strokeColor=#6c8ebf;dashPattern=1 2;" parent="1" edge="1">
                    <mxGeometry width="50" height="50" relative="1" as="geometry">
                        <mxPoint x="220" y="100" as="sourcePoint"/>
                        <mxPoint x="40" y="280" as="targetPoint"/>
                    </mxGeometry>
                </mxCell>
            </root>
        </mxGraphModel>
    </diagram>
</mxfile>
